<svg width="400" height="100" viewBox="0 0 185 42" fill="none" xmlns="http://www.w3.org/2000/svg">
<path d="M21.6309 32H5.51758V30.6816H10.1562V4.02148H9.32617C8.2194 4.02148 7.27539 4.23307 6.49414 4.65625C5.35482 5.30729 4.42708 6.67448 3.71094 8.75781L2.19727 13.1523H0.732422L0.927734 2.70312H26.2207L26.416 13.1523H24.9512L23.4375 8.75781C23.2096 8.13932 22.998 7.60221 22.8027 7.14648C21.8262 5.06315 20.166 4.02148 17.8223 4.02148H16.9922V30.6816H20.3125C20.9961 30.7467 21.4355 31.1862 21.6309 32ZM38.4277 30.7305C38.623 30.7305 38.8021 30.7467 38.9648 30.7793C39.388 30.8444 39.5996 31.2513 39.5996 32H28.125V30.7305C28.3529 30.7305 28.5807 30.7142 28.8086 30.6816C30.2734 30.5514 31.0059 29.7214 31.0059 28.1914V1.53125H28.125V0.261719H37.207V14.666C37.4349 14.2103 37.7116 13.7546 38.0371 13.2988C39.5996 11.2806 41.6992 10.2715 44.3359 10.2715C45.1823 10.2715 45.9635 10.4017 46.6797 10.6621C49.5768 11.6387 51.0254 14.1615 51.0254 18.2305V30.7305H52.6367C52.832 30.7305 53.0273 30.7467 53.2227 30.7793C53.6458 30.8444 53.8574 31.2513 53.8574 32H42.9199V30.7305C43.4733 30.7305 43.9128 30.6491 44.2383 30.4863C44.6289 30.2585 44.8242 29.4935 44.8242 28.1914V17.4004C44.8242 17.0749 44.8079 16.7819 44.7754 16.5215C44.5475 14.0801 43.4408 12.8594 41.4551 12.8594C40.9342 12.8594 40.3971 13.0059 39.8438 13.2988C38.0859 14.2428 37.207 16.1471 37.207 19.0117V30.7305H38.4277ZM73.5352 32.4883C70.931 32.3255 69.2871 30.8444 68.6035 28.0449C68.4408 28.5007 68.2292 28.9401 67.9688 29.3633C66.6667 31.4466 64.6322 32.4883 61.8652 32.4883C60.9538 32.4883 60.1237 32.3743 59.375 32.1465C56.8359 31.3327 55.5664 29.4772 55.5664 26.5801C55.599 22.3158 59.7982 20.1022 68.1641 19.9395V16.7656C68.1641 15.8216 68.099 15.0078 67.9688 14.3242C67.6432 12.4688 66.7155 11.541 65.1855 11.541C64.7298 11.541 64.3229 11.6224 63.9648 11.7852C63.4115 12.1107 62.9557 12.9245 62.5977 14.2266C62.4674 14.6823 62.3698 15.0078 62.3047 15.2031C61.8164 16.5703 60.8724 17.2539 59.4727 17.2539C59.1471 17.2539 58.8379 17.2051 58.5449 17.1074C57.3405 16.7819 56.7383 15.9844 56.7383 14.7148C56.7383 14.1615 56.8848 13.6406 57.1777 13.1523C58.3171 11.2318 61.1003 10.2715 65.5273 10.2715C66.6667 10.2715 67.7246 10.3854 68.7012 10.6133C72.4772 11.5573 74.3652 14.0638 74.3652 18.1328V28.3379C74.3652 29.9004 74.7233 30.7142 75.4395 30.7793C76.3835 30.7467 76.9531 29.6074 77.1484 27.3613L78.418 27.4102C78.3203 28.4193 78.1738 29.2493 77.9785 29.9004C77.3926 31.6257 75.9115 32.4883 73.5352 32.4883ZM64.4043 30.3887C64.6322 30.3887 64.8926 30.3398 65.1855 30.2422C66.5527 29.7214 67.5456 28.3216 68.1641 26.043V21.3066C66.6992 21.3717 65.4948 21.5508 64.5508 21.8438C62.793 22.4948 61.9141 23.8945 61.9141 26.043C61.9466 28.875 62.7767 30.3236 64.4043 30.3887ZM86.8164 21.4043C86.8164 24.4642 87.0117 26.694 87.4023 28.0938C87.9883 30.1771 89.2904 31.2188 91.3086 31.2188C92.4479 31.2188 93.3757 30.877 94.0918 30.1934C95.3288 28.9564 95.9473 25.9616 95.9473 21.209C95.9473 18.2467 95.752 16.082 95.3613 14.7148C94.7754 12.599 93.4408 11.541 91.3574 11.541C90.1204 11.541 89.1602 11.9154 88.4766 12.6641C87.3698 13.9336 86.8164 16.847 86.8164 21.4043ZM91.6016 10.2715C94.401 10.2715 96.7936 11.0365 98.7793 12.5664C101.351 14.6172 102.637 17.4655 102.637 21.1113C102.637 23.8457 101.823 26.2546 100.195 28.3379C98.0143 31.1048 95.0033 32.4883 91.1621 32.4883C88.3626 32.4883 85.9538 31.6419 83.9355 29.9492C81.3965 27.8008 80.127 24.8874 80.127 21.209C80.127 18.6048 80.8757 16.3262 82.373 14.373C84.5215 11.6387 87.5977 10.2715 91.6016 10.2715ZM152.344 2.70312V4.02148H148.438V30.6816H151.025C151.709 30.7467 152.148 31.1862 152.344 32H137.939V30.6816H141.846V7.48828L131.348 32.4883H130.469L120.068 12.2734V30.6816H122.656C123.34 30.7467 123.779 31.1862 123.975 32H114.111V30.6816H118.018V4.02148H114.111V2.70312H122.852L133.105 23.6992L141.846 2.70312H152.344ZM159.18 39.8125C159.505 39.8125 159.847 39.7474 160.205 39.6172C161.637 39.0964 163.135 36.8991 164.697 33.0254L155.176 12.2246H153.125V11.0039H164.6V12.2246H161.621L167.529 25.8477L172.852 12.2246H169.189V11.0039H176.758C176.758 11.1667 176.742 11.3294 176.709 11.4922C176.644 11.9805 176.253 12.2246 175.537 12.2246C175.016 12.2897 174.479 12.7617 173.926 13.6406L166.602 32.6348C165.983 34.2624 165.332 35.6458 164.648 36.7852C162.858 39.9427 160.596 41.5215 157.861 41.5215C156.657 41.5215 155.599 41.2773 154.688 40.7891C153.385 40.1055 152.734 39.2266 152.734 38.1523C152.734 37.9245 152.767 37.6803 152.832 37.4199C153.158 36.4108 153.906 35.9062 155.078 35.9062C155.632 35.9062 156.12 36.0527 156.543 36.3457C156.901 36.6387 157.308 37.3548 157.764 38.4941C158.122 39.373 158.594 39.8125 159.18 39.8125ZM184.863 28.8262C184.863 29.4121 184.733 29.9655 184.473 30.4863C183.822 31.6582 182.796 32.2441 181.396 32.2441C180.843 32.2441 180.322 32.1139 179.834 31.8535C178.597 31.235 177.979 30.2259 177.979 28.8262C177.979 28.2728 178.109 27.7357 178.369 27.2148C179.02 25.9779 180.029 25.3594 181.396 25.3594C181.95 25.3594 182.487 25.4896 183.008 25.75C184.245 26.4336 184.863 27.459 184.863 28.8262Z" fill="white"/>
</svg>
